# xmcd
#
# Track frame offsets: 
#        150
#        14440
#        31213
#        48150
#        58968
#        77805
#        92943
#        103360
#        127880
#        142245
#
# Disc length: 2057 seconds
#
# Revision: 2
# Processed by: cddbd v1.4PL0 Copyright (c) Steve Scherf et al.
# Submitted via: ExactAudioCopy v0.90b4
#
DISCID=8c08070a
DTITLE=Ricky Skaggs - Country Pride
DYEAR=1994
DGENRE=Country
TTITLE0=Highway 40 Blues
TTITLE1=A Wound Time Can't Erase
TTITLE2=Sweet Temptation
TTITLE3=Lonesome For You
TTITLE4=San Antonio Rose
TTITLE5=Window Up Above
TTITLE6=I Don't Care
TTITLE7=One Way Rider
TTITLE8=I Wonder If I Care As Much
TTITLE9=Let It Be You
EXTD=
EXTT0=
EXTT1=
EXTT2=
EXTT3=
EXTT4=
EXTT5=
EXTT6=
EXTT7=
EXTT8=
EXTT9=
PLAYORDER=
